<?xml version="1.0" encoding="UTF-8"?><svg id="a" xmlns="http://www.w3.org/2000/svg" viewBox="0 0 384.04 61.41"><defs><style>.b{fill:#ffec51;}.c{fill:#7f96ff;}</style></defs><rect class="c" y="38.75" width="384.04" height="22.66"/><path class="b" d="m55.92,32.47v4.59l-4.49,1.39c-3.72,1.08-10.53,1.81-17.03,1.81-16.83,0-28.08-8.05-28.08-20.13S17.57,0,34.4,0c7.64,0,15.43,2.22,19.46,5.58l-.26,1.03-.15.67-1.24,5.63-.05.26c-4.23-3.2-11.3-5.83-17.76-5.83-11.25,0-18.69,5.47-18.69,12.85s7.43,13.06,18.69,13.06c5.32,0,10.43-1.08,12.75-1.96v-6.4h-20.6v-7.23h29.37v14.82Z"/><path class="b" d="m87,11.51v7.64c-2.99-.67-7.02-.67-10.12.1-2.22.57-5.83,2.32-7.07,4.65l-.05-.46v15.28h-8.67V12.91h8.67v4.85c1.29-2.06,3.72-3.97,5.37-4.85,3.3-1.76,8.26-2.37,11.87-1.39Z"/><path class="b" d="m90.62,25.86c0-9.14,8.62-15.12,21.06-15.12s21.06,5.99,21.06,15.12-8.98,14.4-21.06,14.4-21.06-5.73-21.06-14.4Zm33.09,0c0-5.06-4.8-8.41-12.03-8.41s-12.03,3.36-12.03,8.41,4.8,8.26,12.03,8.26,12.03-3.3,12.03-8.26Z"/><path class="b" d="m176.62,38.72h-8.67v-3.51c-2.48,2.84-5.99,5.06-13.06,5.06-14.45,0-16.62-7.38-16.62-17.5v-9.86h8.67v9.86c0,7.69,2.58,11.25,9.29,11.25,6.19,0,9.34-1.81,11.72-4.39V12.91h8.67v25.81Z"/><path class="b" d="m225,28.86v9.86h-8.67v-9.86c0-7.69-3.1-11.25-9.81-11.25-5.11,0-9.86,2.06-13.27,5.01v16.11h-8.67V12.91h8.67v4.08c3.41-3.25,8.57-6.09,14.61-6.09,14.45,0,17.14,7.85,17.14,17.96Z"/><path class="b" d="m270.32,0v38.72h-8.67v-3.41c-2.53,3.1-7.9,4.96-13.32,4.96-10.63,0-17.65-5.58-17.71-14.3-.05-8.36,7.07-13.99,17.71-13.99,5.78,0,11.05,2.17,13.32,4.75V0h8.67Zm-8.67,30.51v-8.93c-1.86-2.22-6.61-3.67-11.98-3.67-6.04,0-10.07,3.2-10.07,8.05s4.03,8.1,10.07,8.1c5.58,0,10.32-1.39,11.98-3.56Z"/><path class="b" d="m282.87,8.47c-2.79,0-4.59-1.45-4.59-4.23s1.81-4.23,4.59-4.23,4.59,1.45,4.59,4.23-1.81,4.23-4.59,4.23Zm-4.34,4.44v25.81h8.67V12.91h-8.67Z"/><path class="b" d="m335.84,28.86v9.86h-8.67v-9.86c0-7.69-3.1-11.25-9.81-11.25-5.11,0-9.86,2.06-13.27,5.01v16.11h-8.67V12.91h8.67v4.08c3.41-3.25,8.57-6.09,14.61-6.09,14.45,0,17.14,7.85,17.14,17.96Z"/><path class="b" d="m379.77,12.91v23.49c0,9.34-5.37,13.11-18.74,13.32-6.97.1-11.72-.52-16.62-2.22v-6.66c6.5,2.38,11.25,3.15,16.62,2.74,7.64-.57,10.69-2.43,10.63-6.45v-1.24c-2.58,2.63-7.64,3.87-12.96,3.87-10.32,0-17.19-5.06-17.14-13.47.05-8.72,6.81-14.3,17.14-14.3,5.06,0,10.07,1.7,12.59,4.65l-.05-3.72h8.52Zm-8.21,17.91l-.16-9.29c-1.75-2.01-6.19-3.36-11.41-3.36-5.83,0-9.76,3.25-9.76,8.1s3.92,8.05,9.76,8.05c5.01,0,9.5-1.39,11.56-3.51Z"/></svg>